<svg width="373" height="71" viewBox="0 0 373 71" fill="none" xmlns="http://www.w3.org/2000/svg">
<path d="M25.5074 63.9768C25.4843 63.9535 25.4652 63.0072 25.4652 61.8736V59.8118L24.3346 59.8381C23.7125 59.8523 22.8542 59.8543 22.4271 59.8412L21.6503 59.8189L21.6232 57.7187L21.596 55.6185L19.6614 55.5912L17.7269 55.5638V53.4424V51.3209L15.7923 51.2936L13.8577 51.2663L13.8306 49.166L13.8034 47.0658H11.894H9.98453L10.0117 44.8644L10.0388 42.663L11.9211 42.6357L13.8034 42.6084L13.8306 40.5102L13.8577 38.412L15.7923 38.3847L17.7269 38.3573V36.2845V34.2116H13.8577H9.98855L9.96946 32.3644C9.9584 31.3482 9.94434 30.3806 9.93831 30.2136L9.92725 29.91H8.02383H6.1194L6.09327 25.8887L6.06714 21.8674L4.13357 21.8401L2.2 21.8128V13.1083V4.40385L4.10945 4.38462L6.0189 4.3664L6.06915 2.2085L6.1194 0.0516189H17.7771H29.4348L29.4559 1.82288C29.467 2.79656 29.478 3.76417 29.4811 3.97268L29.4851 4.35122L33.3291 4.37754L37.1731 4.40385L37.2003 6.55365L37.2274 8.70345L41.0694 8.72977L44.9114 8.75608L44.9386 10.9069L44.9657 13.0577H46.8711H48.7766L48.8037 10.9069L48.8308 8.75608H52.7H56.5692L56.5963 10.9069L56.6234 13.0577H58.5289H60.4343L60.4614 10.9069L60.4886 8.75608L64.3306 8.72977L68.1726 8.70345L68.1997 6.55365L68.2269 4.40385L72.096 4.37754L75.9652 4.35122L75.9471 2.40385C75.938 1.333 75.9501 0.354251 75.9742 0.228745L76.0194 0L87.65 0.0263153L99.2806 0.0516189L99.3308 2.21356L99.3811 4.37551L101.291 4.38968L103.2 4.40385V13.1083V21.8128L101.266 21.8401L99.3329 21.8674L99.3067 25.8887L99.2806 29.91L97.6073 29.8836C96.6868 29.8695 95.8305 29.8968 95.7039 29.9444C95.4758 30.0294 95.4738 30.0466 95.4446 32.0952L95.4155 34.161L91.5443 34.1873L87.6731 34.2136V36.2875V38.3614H89.6328H91.5925V40.4869V42.6124H93.502H95.4114L95.4145 42.8907C95.4155 43.0436 95.4205 44.0345 95.4255 45.0922L95.4335 47.0152L93.5151 47.0426L91.5966 47.0699L91.5694 49.1681L91.5423 51.2663L89.256 51.2936L86.9697 51.3209V53.4424V55.5638L85.0351 55.5912L83.1005 55.6185L83.0734 57.7187L83.0462 59.8189L82.6211 59.831C82.387 59.8371 81.5297 59.8351 80.7157 59.826L79.2354 59.8098L79.2082 61.8898C79.1932 63.0335 79.1469 63.9687 79.1057 63.9687C79.0645 63.9687 76.5893 63.9687 73.6055 63.9687H68.1806L68.1535 61.9191L68.1264 59.8695L67.0711 59.8523C66.4903 59.8432 65.6431 59.8321 65.1868 59.827L64.3577 59.8189V58.9839C64.3567 58.5244 64.3276 57.5679 64.2914 56.8584L64.2261 55.5679H62.3327H60.4383V53.4444V51.3209L58.5037 51.2936L56.5692 51.2663V49.166V47.0658H52.7251H48.8811V49.1914V51.3169H46.9214H44.9617V53.4424V55.5679H43.0522H41.1428V57.6934V59.8189L40.9167 59.8402C40.792 59.8513 39.9217 59.8634 38.9821 59.8655L37.2736 59.8695L37.2465 61.9171L37.2194 63.9657L31.3845 63.992C28.1746 64.0072 25.5305 64.0001 25.5074 63.9768ZM41.0192 31.9596L41.0463 29.8593H42.9537H44.8612V27.7359V25.6124L42.9427 25.585L41.0252 25.5577L41.0373 23.7106L41.0503 21.8634H39.1379H37.2254L37.1993 25.8867L37.1731 29.91L34.8114 29.9282C33.513 29.9383 30.9011 29.9494 29.0077 29.9535L25.5657 29.9606V32.0365V34.1114L33.2789 34.0861L40.992 34.0598L41.0192 31.9596ZM79.8343 32.0365V29.9626L74.0306 29.9363L68.2269 29.91L68.2007 25.8867L68.1746 21.8634H66.2581H64.3426L64.3678 23.7106L64.3939 25.5577L62.4663 25.585L60.5388 25.6124V27.7338V29.8553L62.4663 29.8826L64.3939 29.91L64.415 31.9849C64.426 33.1266 64.4411 34.0709 64.4472 34.0851C64.4532 34.0992 67.9173 34.1104 72.1463 34.1104H79.8343V32.0365ZM25.4652 25.8108V21.7622L26.1938 21.7581C26.5948 21.7551 27.4651 21.744 28.1284 21.7328L29.3343 21.7116L29.3615 19.6103L29.3886 17.5091L25.5426 17.5354L21.6965 17.5618L21.6925 18.6245C21.6915 19.2085 21.6794 20.1771 21.6674 20.7753L21.6463 21.8634H19.7368H17.8274V23.6852V25.5071H19.7368H21.6463L21.6533 26.7976C21.6573 27.5071 21.6543 28.4403 21.6473 28.8715C21.6392 29.3027 21.6613 29.7015 21.6965 29.7571C21.7347 29.8199 22.4764 29.8593 23.612 29.8593H25.4652V25.8108ZM83.7306 27.6579L83.7577 25.5071H85.6652H87.5726V23.6852V21.8634H85.6632H83.7537V19.6873V17.5112H79.8826H76.0114L76.0385 19.6114L76.0657 21.7116L78.0002 21.7389L79.9348 21.7662V25.8148V29.8634L81.8192 29.8361L83.7035 29.8087L83.7306 27.6579Z" fill="#023C68"/>
<path d="M144.202 53H126.203V50.0154H132.19V8.01099H126.203V5.00806H156.196V8.01099H159.199V11.0139H162.201V26.0103H159.199V29.0132H156.196V32.0161H141.199V29.0132H153.193V26.0103H156.196V11.0139H153.193V8.01099H138.196V50.0154H144.202V53ZM180.237 53H168.244V50.0154H171.229V26.0103H168.244V23.0073H171.229V20.0044H174.231V17.0015H177.234V23.0073H180.237V26.0103H177.234V50.0154H180.237V53ZM192.231 26.0103H186.243V23.0073H180.237V20.0044H192.231V26.0103ZM217.719 53H202.723V50.0154H199.72V47.0125H196.717V41.0066H193.732V32.0161H196.717V26.0103H199.72V23.0073H202.723V20.0044H217.719V23.0073H220.722V26.0103H223.725V32.0161H226.728V41.0066H223.725V47.0125H220.722V50.0154H217.719V53ZM205.726 50.0154H214.716V47.0125H217.719V41.0066H220.722V32.0161H217.719V26.0103H214.716V23.0073H205.726V26.0103H202.723V32.0161H199.72V41.0066H202.723V47.0125H205.726V50.0154ZM253.718 29.0132H250.715V26.0103H247.73V23.0073H237.22V20.0044H250.715V23.0073H253.718V29.0132ZM249.231 53H234.217V50.0154H231.232V42.5081H234.217V47.0125H237.22V50.0154H246.229V47.0125H249.231V41.0066H246.229V38.0037H240.223V35.0007H234.217V32.0161H231.232V26.0103H234.217V23.0073H237.22V29.0132H240.223V32.0161H246.229V35.0007H252.216V38.0037H255.219V47.0125H252.216V50.0154H249.231V53ZM283.71 53H268.714V50.0154H265.711V47.0125H262.708V41.0066H259.723V32.0161H262.708V26.0103H265.711V23.0073H268.714V20.0044H283.71V23.0073H286.713V26.0103H289.716V32.0161H292.719V41.0066H289.716V47.0125H286.713V50.0154H283.71V53ZM271.717 50.0154H280.707V47.0125H283.71V41.0066H286.713V32.0161H283.71V26.0103H280.707V23.0073H271.717V26.0103H268.714V32.0161H265.711V41.0066H268.714V47.0125H271.717V50.0154ZM307.715 70.9993H295.722V67.9963H298.707V26.0103H295.722V23.0073H298.707V20.0044H301.71V17.0015H304.712V23.0073H307.715V26.0103H304.712V47.0125H307.715V50.0154H304.712V67.9963H307.715V70.9993ZM319.709 53H307.715V50.0154H316.706V47.0125H319.709V41.0066H322.712V32.0161H319.709V26.0103H316.706V23.0073H307.715V20.0044H319.709V23.0073H322.712V26.0103H325.715V32.0161H328.718V41.0066H325.715V47.0125H322.712V50.0154H319.709V53ZM358.71 53H343.714V50.0154H340.711V47.0125H337.708V41.0066H334.723V32.0161H337.708V26.0103H340.711V23.0073H343.714V20.0044H358.71V23.0073H361.713V26.0103H364.716V32.0161H367.719V41.0066H364.716V47.0125H361.713V50.0154H358.71V53ZM346.717 50.0154H355.707V47.0125H358.71V41.0066H361.713V32.0161H358.71V26.0103H355.707V23.0073H346.717V26.0103H343.714V32.0161H340.711V41.0066H343.714V47.0125H346.717V50.0154Z" fill="black"/>
</svg>
