<svg width="101" height="64" viewBox="0 0 101 64" fill="none" xmlns="http://www.w3.org/2000/svg">
<path d="M23.3074 63.9768C23.2843 63.9535 23.2652 63.0072 23.2652 61.8736V59.8118L22.1346 59.8381C21.5125 59.8523 20.6542 59.8543 20.2271 59.8412L19.4503 59.8189L19.4232 57.7187L19.396 55.6185L17.4614 55.5912L15.5269 55.5638V53.4424V51.3209L13.5923 51.2936L11.6577 51.2663L11.6306 49.166L11.6034 47.0658H9.69399H7.78454L7.81167 44.8644L7.83881 42.663L9.72112 42.6357L11.6034 42.6084L11.6306 40.5102L11.6577 38.412L13.5923 38.3847L15.5269 38.3573V36.2845V34.2116H11.6577H7.78856L7.76946 32.3644C7.75841 31.3482 7.74434 30.3806 7.73831 30.2136L7.72725 29.91H5.82383H3.9194L3.89327 25.8887L3.86714 21.8674L1.93357 21.8401L0 21.8128V13.1083V4.40385L1.90945 4.38462L3.81891 4.3664L3.86915 2.2085L3.9194 0.0516189H15.5771H27.2348L27.2559 1.82288C27.267 2.79656 27.278 3.76417 27.2811 3.97268L27.2851 4.35122L31.1291 4.37754L34.9731 4.40385L35.0003 6.55365L35.0274 8.70345L38.8694 8.72977L42.7114 8.75608L42.7386 10.9069L42.7657 13.0577H44.6711H46.5766L46.6037 10.9069L46.6308 8.75608H50.5H54.3692L54.3963 10.9069L54.4234 13.0577H56.3289H58.2343L58.2614 10.9069L58.2886 8.75608L62.1306 8.72977L65.9726 8.70345L65.9997 6.55365L66.0269 4.40385L69.896 4.37754L73.7652 4.35122L73.7471 2.40385C73.738 1.333 73.7501 0.354251 73.7742 0.228745L73.8194 0L85.45 0.0263153L97.0806 0.0516189L97.1308 2.21356L97.1811 4.37551L99.0905 4.38968L101 4.40385V13.1083V21.8128L99.0664 21.8401L97.1329 21.8674L97.1067 25.8887L97.0806 29.91L95.4073 29.8836C94.4868 29.8695 93.6305 29.8968 93.5039 29.9444C93.2758 30.0294 93.2738 30.0466 93.2446 32.0952L93.2155 34.161L89.3443 34.1873L85.4731 34.2136V36.2875V38.3614H87.4328H89.3925V40.4869V42.6124H91.302H93.2114L93.2145 42.8907C93.2155 43.0436 93.2205 44.0345 93.2255 45.0922L93.2336 47.0152L91.3151 47.0426L89.3966 47.0699L89.3694 49.1681L89.3423 51.2663L87.056 51.2936L84.7697 51.3209V53.4424V55.5638L82.8351 55.5912L80.9005 55.6185L80.8734 57.7187L80.8462 59.8189L80.4211 59.831C80.187 59.8371 79.3297 59.8351 78.5157 59.826L77.0354 59.8098L77.0082 61.8898C76.9932 63.0335 76.9469 63.9687 76.9057 63.9687C76.8645 63.9687 74.3893 63.9687 71.4055 63.9687H65.9806L65.9535 61.9191L65.9264 59.8695L64.8711 59.8523C64.2903 59.8432 63.4431 59.8321 62.9868 59.827L62.1577 59.8189V58.9839C62.1567 58.5244 62.1276 57.5679 62.0914 56.8584L62.0261 55.5679H60.1327H58.2383V53.4444V51.3209L56.3037 51.2936L54.3692 51.2663V49.166V47.0658H50.5251H46.6811V49.1914V51.3169H44.7214H42.7617V53.4424V55.5679H40.8522H38.9428V57.6934V59.8189L38.7167 59.8402C38.5921 59.8513 37.7217 59.8634 36.7821 59.8655L35.0736 59.8695L35.0465 61.9171L35.0194 63.9657L29.1845 63.992C25.9746 64.0072 23.3305 64.0001 23.3074 63.9768ZM38.8192 31.9596L38.8463 29.8593H40.7538H42.6612V27.7359V25.6124L40.7427 25.585L38.8252 25.5577L38.8373 23.7106L38.8503 21.8634H36.9379H35.0254L34.9993 25.8867L34.9731 29.91L32.6114 29.9282C31.313 29.9383 28.7011 29.9494 26.8077 29.9535L23.3657 29.9606V32.0365V34.1114L31.0789 34.0861L38.792 34.0598L38.8192 31.9596ZM77.6343 32.0365V29.9626L71.8306 29.9363L66.0269 29.91L66.0007 25.8867L65.9746 21.8634H64.0581H62.1426L62.1678 23.7106L62.1939 25.5577L60.2663 25.585L58.3388 25.6124V27.7338V29.8553L60.2663 29.8826L62.1939 29.91L62.215 31.9849C62.2261 33.1266 62.2411 34.0709 62.2472 34.0851C62.2532 34.0992 65.7173 34.1104 69.9463 34.1104H77.6343V32.0365ZM23.2652 25.8108V21.7622L23.9938 21.7581C24.3948 21.7551 25.2651 21.744 25.9284 21.7328L27.1343 21.7116L27.1615 19.6103L27.1886 17.5091L23.3426 17.5354L19.4965 17.5618L19.4925 18.6245C19.4915 19.2085 19.4794 20.1771 19.4674 20.7753L19.4463 21.8634H17.5368H15.6274V23.6852V25.5071H17.5368H19.4463L19.4533 26.7976C19.4573 27.5071 19.4543 28.4403 19.4473 28.8715C19.4392 29.3027 19.4613 29.7015 19.4965 29.7571C19.5347 29.8199 20.2764 29.8593 21.412 29.8593H23.2652V25.8108ZM81.5306 27.6579L81.5578 25.5071H83.4652H85.3726V23.6852V21.8634H83.4632H81.5537V19.6873V17.5112H77.6826H73.8114L73.8385 19.6114L73.8657 21.7116L75.8002 21.7389L77.7348 21.7662V25.8148V29.8634L79.6192 29.8361L81.5035 29.8087L81.5306 27.6579Z" fill="#023C68"/>
</svg>
